<?xml version="1.0" encoding="utf-8"?>
<!-- Generator: Adobe Illustrator 19.0.0, SVG Export Plug-In . SVG Version: 6.00 Build 0)  -->
<svg version="1.1" id="Layer_1" xmlns="http://www.w3.org/2000/svg" xmlns:xlink="http://www.w3.org/1999/xlink" x="0px" y="0px"
	 viewBox="-272 355.5 66 66" style="enable-background:new -272 355.5 66 66;" xml:space="preserve">
<g>
	<g>
		<path d="M-255.1,391.4L-255.1,391.4c33.6-0.1-1.4-0.1,32.1,0c5.5,0,9.9-4.5,9.9-9.9c0-5.5-4.4-9.9-9.9-9.9c-1.1,0-28.8,0-32.1,0
			c-5.4-0.1-9.9,4.3-9.9,9.8S-260.5,391.4-255.1,391.4z M-222.9,373.5c4.4,0,7.9,3.5,7.9,7.9s-3.6,7.9-7.9,7.9H-238
			c-5.7,0-9.6-5.9-7.2-11.2c1.3,0,2.3,0,3.1,0c-2.7,3.4-0.3,8.5,4.1,8.5h15.1c2.9,0,5.2-2.3,5.2-5.2s-2.3-5.2-5.2-5.2h-8.6
			c-0.7-1.1-1.5-2-2.5-2.7C-231.8,373.5-228.3,373.5-222.9,373.5z M-247.4,384.7h-7.7c-1.8,0-3.2-1.5-3.2-3.2c0-1.8,1.5-3.2,3.2-3.2
			h7.7C-248.1,380.3-248.1,382.4-247.4,384.7z M-239,384.5c-3-1-3-5.1,0-6.1C-236,379.3-236,383.5-239,384.5z M-230.6,384.7
			c0.7-2.1,0.8-4.3,0-6.5h7.7c1.8,0,3.2,1.5,3.2,3.2c0,1.8-1.5,3.2-3.2,3.2h-7.7V384.7z M-255.1,373.5h15.1c5.7,0,9.6,5.9,7.2,11.2
			h-3.1c2.3-3,0.8-7.4-2.9-8.3c-0.8-0.2,0.3-0.1-16.3-0.2c-2.9,0-5.2,2.3-5.2,5.2s2.3,5.2,5.2,5.2h8.6c0.6,1,1.5,1.9,2.4,2.7
			c-1.7,0-9.4,0-11.1,0c-4.4,0-7.9-3.6-7.9-7.9C-263,377-259.4,373.5-255.1,373.5z"/>
	</g>
	<g>
		<path d="M-210,357.9h-58c-1.7,0-3,1.3-3,3v43c0,1.7,1.3,3,3,3h19.1v5.7l-2.6,3.2c-1.1,1.3-0.1,3.3,1.6,3.3h21.8
			c1.7,0,2.6-1.9,1.6-3.3l-2.6-3.2v-5.7h19.1c1.7,0,3-1.3,3-3v-43C-207,359.3-208.3,357.9-210,357.9z M-268,359.9h58
			c0.6,0,1,0.4,1,1v34.3h-60v-34.3C-269,360.4-268.6,359.9-268,359.9z M-228.1,417.1h-21.8l2.5-3.1h16.8L-228.1,417.1L-228.1,417.1z
			 M-231.1,412h-15.8v-5.1h15.7L-231.1,412L-231.1,412z M-210,404.9c-6.2,0-52.3,0-58,0c-0.6,0-1-0.4-1-1v-6.7h60v6.7
			C-209,404.5-209.4,404.9-210,404.9z"/>
	</g>
	<g>
		<rect x="-242" y="400.1" width="6" height="2"/>
	</g>
	<g>
		<rect x="-256" y="400.1" width="2" height="2"/>
	</g>
	<g>
		<rect x="-263" y="400.1" width="2" height="2"/>
	</g>
	<g>
		<path d="M-239,368c0.6,0,1-0.4,1-1v-3.3c0-0.6-0.4-1-1-1s-1,0.4-1,1v3.3C-240,367.6-239.6,368-239,368z"/>
	</g>
	<g>
		<path d="M-234.6,368.6c0.5,0.2,1.1,0,1.3-0.5l1.5-3.1c0.2-0.5,0-1.1-0.5-1.3c-0.5-0.2-1.1,0-1.3,0.5l-1.4,3.1
			C-235.3,367.8-235.1,368.4-234.6,368.6z"/>
	</g>
	<g>
		<path d="M-244.8,368.1c0.2,0.5,0.8,0.7,1.3,0.5c0.5-0.2,0.7-0.8,0.5-1.3l-1.5-3.1c-0.2-0.5-0.8-0.7-1.3-0.5
			c-0.5,0.2-0.7,0.8-0.5,1.3L-244.8,368.1z"/>
	</g>
</g>
</svg>
