<?xml version="1.0" encoding="utf-8"?>
<!-- Generator: Adobe Illustrator 19.0.0, SVG Export Plug-In . SVG Version: 6.00 Build 0)  -->
<svg version="1.1" id="Layer_1" xmlns="http://www.w3.org/2000/svg" xmlns:xlink="http://www.w3.org/1999/xlink" x="0px" y="0px"
	 viewBox="-272 355.5 66 66" style="enable-background:new -272 355.5 66 66;" xml:space="preserve">
<g>
	<g>
		<path d="M-236.8,356.5h-4.5c-1.1,0-2,0.9-2,2v3h-24c-1.7,0-3,1.3-3,3v3.3c0,0.6,0.4,1,1,1h1.8v34.6c0,1.7,1.3,3,3,3h13.1
			l-3.3,12.8c-0.1,0.5,0.2,1.1,0.7,1.2c0.5,0.1,1.1-0.2,1.2-0.7l1-3.8h25.5l1,3.8c0.1,0.5,0.7,0.9,1.2,0.7c0.5-0.1,0.9-0.7,0.7-1.2
			l-3.3-12.8h13.1c1.7,0,3-1.3,3-3v-34.6h1.8c0.6,0,1-0.4,1-1v-3.3c0-1.7-1.3-3-3-3h-24v-3C-234.8,357.4-235.6,356.5-236.8,356.5z
			 M-241.3,358.5h4.5v3h-4.5V358.5z M-226.9,414h-24.4l2-7.5h20.5L-226.9,414z M-212.6,403.4c0,0.6-0.4,1-1,1h-50.8
			c-0.6,0-1-0.4-1-1v-34.6h52.8C-212.7,368.8-212.7,403.4-212.6,403.4z M-209.9,364.5v2.3c-14.6,0-48.2,0-58.4,0v-2.3
			c0-0.6,0.4-1,1-1c21.7,0,40,0,56.4,0C-210.4,363.5-209.9,363.9-209.9,364.5z"/>
	</g>
	<g>
		<path d="M-241.8,378.5c0.4,0.4,1,0.4,1.4,0l1.3-1.3l1.3,1.3c0.4,0.4,1,0.4,1.4,0c0.4-0.4,0.4-1,0-1.4l-1.3-1.3l1.3-1.3
			c0.4-0.4,0.4-1,0-1.4c-0.4-0.4-1-0.4-1.4,0l-1.3,1.3l-1.3-1.3c-0.4-0.4-1-0.4-1.4,0c-0.4,0.4-0.4,1,0,1.4l1.3,1.3l-1.3,1.3
			C-242.2,377.5-242.2,378.1-241.8,378.5z"/>
	</g>
	<g>
		<path d="M-227.1,391.2c0.4,0.4,1,0.4,1.4,0.1c0.4-0.4,0.4-1,0.1-1.4l-7.3-8c-0.4-0.4-1-0.4-1.4-0.1c-0.4,0.4-0.4,1-0.1,1.4
			L-227.1,391.2z"/>
	</g>
	<g>
		<path d="M-251.1,391.2l7.3-8c0.4-0.4,0.3-1-0.1-1.4c-0.4-0.4-1-0.3-1.4,0.1l-7.3,8c-0.4,0.4-0.3,1,0.1,1.4
			C-252.1,391.7-251.4,391.7-251.1,391.2z"/>
	</g>
	<g>
		<path d="M-260,400.1c0.4,0.4,1,0.4,1.4,0l1.3-1.3l1.3,1.3c0.4,0.4,1,0.4,1.4,0c0.4-0.4,0.4-1,0-1.4l-1.3-1.3l1.3-1.3
			c0.4-0.4,0.4-1,0-1.4s-1-0.4-1.4,0l-1.3,1.3l-1.3-1.3c-0.4-0.4-1-0.4-1.4,0c-0.4,0.4-0.4,1,0,1.4l1.3,1.3l-1.3,1.3
			C-260.3,399-260.3,399.7-260,400.1z"/>
	</g>
	<g>
		<path d="M-219.6,394.7l-1.3,1.3l-1.3-1.3c-0.4-0.4-1-0.4-1.4,0c-0.4,0.4-0.4,1,0,1.4l1.3,1.3l-1.3,1.3c-0.4,0.4-0.4,1,0,1.4
			c0.4,0.4,1,0.4,1.4,0l1.3-1.3l1.3,1.3c0.4,0.4,1,0.4,1.4,0c0.4-0.4,0.4-1,0-1.4l-1.3-1.3l1.3-1.3c0.4-0.4,0.4-1,0-1.4
			C-218.6,394.3-219.3,394.3-219.6,394.7z"/>
	</g>
	<g>
		<path d="M-241.8,400.1c0.4,0.4,1,0.4,1.4,0l1.3-1.3l1.3,1.3c0.4,0.4,1,0.4,1.4,0c0.4-0.4,0.4-1,0-1.4l-1.3-1.3l1.3-1.3
			c0.4-0.4,0.4-1,0-1.4c-0.4-0.4-1-0.4-1.4,0l-1.3,1.2l-1.3-1.3c-0.4-0.4-1-0.4-1.4,0c-0.4,0.4-0.4,1,0,1.4l1.3,1.3l-1.3,1.3
			C-242.2,399-242.2,399.7-241.8,400.1z"/>
	</g>
	<g>
		<path d="M-240.1,383.6v6c0,0.6,0.4,1,1,1c0.6,0,1-0.4,1-1v-6c0-0.6-0.4-1-1-1C-239.6,382.6-240.1,383.1-240.1,383.6z"/>
	</g>
	<g>
		<path d="M-224.3,374.8h5c0.6,0,1-0.4,1-1s-0.4-1-1-1h-5c-0.6,0-1,0.4-1,1S-224.9,374.8-224.3,374.8z"/>
	</g>
	<g>
		<path d="M-224.3,379.8h5c0.6,0,1-0.4,1-1s-0.4-1-1-1h-5c-0.6,0-1,0.4-1,1S-224.9,379.8-224.3,379.8z"/>
	</g>
	<g>
		<path d="M-258.9,374.8h5c0.6,0,1-0.4,1-1s-0.4-1-1-1h-5c-0.6,0-1,0.4-1,1S-259.4,374.8-258.9,374.8z"/>
	</g>
	<g>
		<path d="M-258.9,379.8h5c0.6,0,1-0.4,1-1s-0.4-1-1-1h-5c-0.6,0-1,0.4-1,1S-259.4,379.8-258.9,379.8z"/>
	</g>
</g>
</svg>
