<?xml version="1.0" encoding="utf-8"?>
<!-- Generator: Adobe Illustrator 19.0.0, SVG Export Plug-In . SVG Version: 6.00 Build 0)  -->
<svg version="1.1" id="Layer_1" xmlns="http://www.w3.org/2000/svg" xmlns:xlink="http://www.w3.org/1999/xlink" x="0px" y="0px"
	 viewBox="-272 355.5 66 66" style="enable-background:new -272 355.5 66 66;" xml:space="preserve">
<g>
	<g>
		<path d="M-267,407.5h21.2c-0.5,2.3-2.5,4-4.9,4c-0.6,0-1,0.4-1,1v4.5c0,0.6,0.4,1,1,1h23.4c0.6,0,1-0.4,1-1v-4.5c0-0.6-0.4-1-1-1
			c-2.4,0-4.4-1.7-4.9-4h21.2c2.2,0,4-1.8,4-4V363c0-2.2-1.8-4-4-4h-56c-2.2,0-4,1.8-4,4v40.5C-271,405.7-269.2,407.5-267,407.5z
			 M-228.3,413.4v2.6h-21.4v-2.6c3.1-0.4,5.5-2.9,5.9-5.9h9.5C-233.8,410.5-231.4,413-228.3,413.4z M-211,405.5c-12.1,0-44.8,0-56,0
			c-1.1,0-2-0.9-2-2v-6.7h60v6.7C-209,404.6-209.9,405.5-211,405.5z M-267,361h56c1.1,0,2,0.9,2,2v31.7h-60V363
			C-269,361.9-268.1,361-267,361z"/>
	</g>
	<g>
		<path d="M-236.5,400.1h-5c-0.6,0-1,0.4-1,1s0.4,1,1,1h5c0.6,0,1-0.4,1-1S-235.9,400.1-236.5,400.1z"/>
	</g>
	<g>
		<path d="M-250.8,400.1h-2c-0.6,0-1,0.4-1,1s0.4,1,1,1h2c0.6,0,1-0.4,1-1S-250.2,400.1-250.8,400.1z"/>
	</g>
	<g>
		<path d="M-259.8,400.1h-2c-0.6,0-1,0.4-1,1s0.4,1,1,1h2c0.6,0,1-0.4,1-1S-259.2,400.1-259.8,400.1z"/>
	</g>
	<g>
		<path d="M-263.5,382.7h17c0.6,0,1-0.4,1-1v-15.3c0-0.6-0.4-1-1-1h-17c-0.6,0-1,0.4-1,1v15.3C-264.5,382.3-264.1,382.7-263.5,382.7
			z M-262.5,367.4h15v13.3h-15V367.4z"/>
	</g>
	<g>
		<path d="M-252,370.1h-3.7c-0.6,0-1,0.4-1,1s0.4,1,1,1h1.3l-4.3,4.3c-0.4,0.4-0.4,1,0,1.4c0.4,0.4,1,0.4,1.4,0l4.3-4.3v1.3
			c0,0.6,0.4,1,1,1s1-0.4,1-1v-3.7C-251,370.5-251.5,370.1-252,370.1z"/>
	</g>
	<g>
		<path d="M-238.6,367.4h24.1c0.6,0,1-0.4,1-1s-0.4-1-1-1h-24.1c-0.6,0-1,0.4-1,1C-239.6,366.9-239.2,367.4-238.6,367.4z"/>
	</g>
	<g>
		<path d="M-238.6,375.1h24.1c0.6,0,1-0.4,1-1s-0.4-1-1-1h-24.1c-0.6,0-1,0.4-1,1C-239.6,374.6-239.2,375.1-238.6,375.1z"/>
	</g>
	<g>
		<path d="M-238.6,382.7h24.1c0.6,0,1-0.4,1-1c0-0.6-0.4-1-1-1h-24.1c-0.6,0-1,0.4-1,1C-239.6,382.3-239.2,382.7-238.6,382.7z"/>
	</g>
	<g>
		<path d="M-263.5,390.4h49.1c0.6,0,1-0.4,1-1s-0.4-1-1-1h-49.1c-0.6,0-1,0.4-1,1C-264.5,389.9-264.1,390.4-263.5,390.4z"/>
	</g>
</g>
</svg>
